<?xml version="1.0" encoding="iso-8859-1"?>
<!-- Generator: Adobe Illustrator 19.0.0, SVG Export Plug-In . SVG Version: 6.00 Build 0)  -->
<svg version="1.1" id="Layer_1" xmlns="http://www.w3.org/2000/svg" xmlns:xlink="http://www.w3.org/1999/xlink" x="0px" y="0px"
	 viewBox="0 0 512 512" style="enable-background:new 0 0 512 512;" xml:space="preserve">
<rect x="432.562" y="399.753" style="fill:#919CB0;" width="66.637" height="52.446"/>
<path style="fill:#FF877F;" d="M390.544,499.575l-6.903-86.852h-26.863l18.705-102.972h76.612l16.35,90.001H445.37
	c-7.057,0-12.8,5.743-12.8,12.8v26.846c0,3.413,1.34,6.639,3.772,9.071l4.13,4.13l-3.371,46.967h-46.558V499.575z"/>
<rect x="86.663" y="399.753" style="fill:#BCB0AD;" width="66.637" height="52.446"/>
<g>
	<path style="fill:#FFE7E5;" d="M413.78,284.902c-21.862,0-39.646-17.783-39.646-39.646s17.783-39.646,39.646-39.646
		c21.854,0,39.637,17.783,39.637,39.646S435.634,284.902,413.78,284.902z"/>
	<path style="fill:#FFE7E5;" d="M67.881,284.902c-21.862,0-39.646-17.783-39.646-39.646s17.783-39.646,39.646-39.646
		c21.854,0,39.637,17.783,39.637,39.646S89.735,284.902,67.881,284.902z"/>
</g>
<path style="fill:#919CB0;" d="M44.636,499.575l-6.895-86.852H10.87l18.705-102.972h76.612l16.35,90.001H99.463
	c-7.057,0-12.8,5.743-12.8,12.8v26.846c0,3.413,1.34,6.639,3.772,9.071l4.13,4.13l-3.371,46.967H44.636V499.575z"/>
<path style="fill:#6FB0B6;" d="M140.799,204.8v-38.4h-51.2V64h128v38.4c0,7.057,5.743,12.8,12.8,12.8h38.4v51.2h-81.69
	l-22.059,44.126L140.799,204.8z"/>
<polygon style="fill:#FEDEA1;" points="324.888,115.2 217.599,115.2 217.599,12.8 422.399,12.8 422.399,115.2 371.199,115.2 
	371.199,153.6 346.947,159.326 "/>
<g>
	<path style="fill:#573A32;" d="M119.977,245.248c0-28.723-23.373-52.079-52.096-52.079s-52.087,23.347-52.087,52.079
		s23.364,52.079,52.087,52.079S119.977,273.971,119.977,245.248z M67.881,272.102c-14.797,0-26.837-12.049-26.837-26.846
		s12.041-26.846,26.837-26.846s26.837,12.041,26.837,26.837C94.719,260.045,82.678,272.102,67.881,272.102z"/>
	<path style="fill:#573A32;" d="M140.5,386.953h-7.612l-13.235-72.798c-1.775-9.754-10.274-16.828-20.198-16.828H67.881H36.316
		c-9.924,0-18.423,7.074-20.198,16.828L0.331,401.007c-1.084,5.999,0.529,12.126,4.437,16.802c3.908,4.702,9.651,7.373,15.761,7.373
		h5.709l5.385,67.951C32.494,503.723,41.479,512,52.095,512h31.573c10.641,0,19.627-8.277,20.463-18.876l2.236-28.126H140.5
		c14.14,0,25.6-11.46,25.6-25.6v-26.846C166.1,398.413,154.64,386.953,140.5,386.953z M73.863,412.553v26.846
		c0,7.083,2.884,13.491,7.535,18.125l-2.099,29.252H56.472l-6.903-86.852H26.204l14.063-77.372h14.985v43.298
		c0,6.972,5.666,12.621,12.621,12.621s12.638-5.649,12.638-12.621v-43.298h14.985l11.699,64.401h-7.74
		C85.323,386.953,73.863,398.413,73.863,412.553z M140.5,439.398H99.463v-26.846H140.5V439.398z"/>
	<path style="fill:#573A32;" d="M465.884,245.248c0-28.723-23.373-52.079-52.096-52.079c-28.723,0-52.087,23.347-52.087,52.079
		s23.364,52.079,52.087,52.079C442.512,297.327,465.884,273.971,465.884,245.248z M413.78,272.102
		c-14.797,0-26.837-12.049-26.837-26.846s12.041-26.846,26.837-26.846s26.837,12.049,26.837,26.846S428.577,272.102,413.78,272.102z
		"/>
	<path style="fill:#573A32;" d="M486.399,386.953h-7.612l-13.235-72.798c-1.775-9.754-10.274-16.828-20.198-16.828H413.78h-31.565
		c-9.924,0-18.423,7.074-20.198,16.828l-15.787,86.852c-1.084,5.999,0.529,12.126,4.437,16.802
		c3.908,4.702,9.651,7.373,15.761,7.373h5.709l5.385,67.951c0.87,10.59,9.856,18.867,20.471,18.867h31.573
		c10.641,0,19.627-8.277,20.463-18.876l2.236-28.126h34.133c14.14,0,25.6-11.46,25.6-25.6v-26.846
		C511.999,398.413,500.538,386.953,486.399,386.953z M419.762,412.553v26.846c0,7.083,2.884,13.491,7.535,18.125l-2.099,29.252
		h-22.827l-6.903-86.852h-23.364l14.063-77.372h14.985v43.298c0,6.972,5.666,12.621,12.621,12.621
		c6.955,0,12.638-5.649,12.638-12.621v-43.298h14.985l11.699,64.401h-7.74C431.222,386.953,419.762,398.413,419.762,412.553z
		 M486.399,439.398h-41.037v-26.846h41.037V439.398z"/>
	<path style="fill:#573A32;" d="M364.278,178.517c11.554-2.731,19.721-13.047,19.721-24.917V128h25.6c14.14,0,25.6-11.46,25.6-25.6
		V25.6c0-14.14-11.46-25.6-25.6-25.6h-179.2c-14.14,0-25.6,11.46-25.6,25.6v25.6h-102.4c-14.14,0-25.6,11.46-25.6,25.6v76.8
		c0,14.14,11.46,25.6,25.6,25.6h25.6v25.6c0,11.87,8.166,22.187,19.721,24.917c1.963,0.461,3.934,0.691,5.888,0.691
		c9.523,0,18.483-5.342,22.886-14.157l18.526-37.052h60.979c14.14,0,25.6-11.46,25.6-25.6V128h35.379l18.526,37.052
		c4.403,8.815,13.363,14.148,22.886,14.148C360.344,179.2,362.315,178.978,364.278,178.517z M255.999,153.6h-76.8l-25.6,51.2v-51.2
		h-51.2V76.8h102.4v25.6c0,14.14,11.46,25.6,25.6,25.6h25.6V153.6z M332.799,102.4h-102.4V25.6h179.2v76.8h-51.2v51.2L332.799,102.4
		z"/>
</g>
<g>
</g>
<g>
</g>
<g>
</g>
<g>
</g>
<g>
</g>
<g>
</g>
<g>
</g>
<g>
</g>
<g>
</g>
<g>
</g>
<g>
</g>
<g>
</g>
<g>
</g>
<g>
</g>
<g>
</g>
</svg>
